inDegrees=no
num_controls=7
num_derivatives=13
num_iterations=138
num_multipliers=7
num_parameters=0
num_slacks=7
num_states=26
objective=5.182033
objective_accelerations=0.470397
objective_balance=0.046330
objective_effort=0.444081
objective_height=4.159350
objective_ligament=0.061876
solver_duration=1533.629848
status=Solve_Succeeded
success=true
DataType=double
version=3
OpenSimVersion=4.4-2022-07-23-0e9fedc
endheader
time	/jointset/ground_pelvis/pelvis_tilt/value	/jointset/ground_pelvis/pelvis_tx/value	/jointset/ground_pelvis/pelvis_ty/value	/jointset/hip_l/hip_flexion_l/value	/jointset/hip_l/hip_adduction_l/value	/jointset/hip_l/hip_rotation_l/value	/jointset/back/lumbar_extension/value	/jointset/patellofemoral_l/patellar_flexion_l/value	/jointset/knee_l/knee_flexion_l/value	/jointset/knee_l/knee_adduction_l/value	/jointset/knee_l/knee_rotation_l/value	/jointset/ankle_l/ankle_angle_l/value	/jointset/subtalar_l/subtalar_angle_l/value	/jointset/ground_pelvis/pelvis_tilt/speed	/jointset/ground_pelvis/pelvis_tx/speed	/jointset/ground_pelvis/pelvis_ty/speed	/jointset/hip_l/hip_flexion_l/speed	/jointset/hip_l/hip_adduction_l/speed	/jointset/hip_l/hip_rotation_l/speed	/jointset/back/lumbar_extension/speed	/jointset/patellofemoral_l/patellar_flexion_l/speed	/jointset/knee_l/knee_flexion_l/speed	/jointset/knee_l/knee_adduction_l/speed	/jointset/knee_l/knee_rotation_l/speed	/jointset/ankle_l/ankle_angle_l/speed	/jointset/subtalar_l/subtalar_angle_l/speed	/forceset/tau_hip_flexion_l	/forceset/tau_hip_adduction_l	/forceset/tau_hip_rotation_l	/forceset/tau_knee_flexion_l	/forceset/tau_ankle_angle_l	/forceset/tau_subtalar_angle_l	/forceset/tau_lumbar_extension	lambda_cid13_p0	lambda_cid13_p1	lambda_cid13_p2	lambda_cid13_p3	lambda_cid13_p4	lambda_cid13_p5	lambda_cid14_p0	/jointset/ground_pelvis/pelvis_tilt/accel	/jointset/ground_pelvis/pelvis_tx/accel	/jointset/ground_pelvis/pelvis_ty/accel	/jointset/hip_l/hip_flexion_l/accel	/jointset/hip_l/hip_adduction_l/accel	/jointset/hip_l/hip_rotation_l/accel	/jointset/back/lumbar_extension/accel	/jointset/patellofemoral_l/patellar_flexion_l/accel	/jointset/knee_l/knee_flexion_l/accel	/jointset/knee_l/knee_adduction_l/accel	/jointset/knee_l/knee_rotation_l/accel	/jointset/ankle_l/ankle_angle_l/accel	/jointset/subtalar_l/subtalar_angle_l/accel	gamma_cid13_p0	gamma_cid13_p1	gamma_cid13_p2	gamma_cid13_p3	gamma_cid13_p4	gamma_cid13_p5	gamma_cid14_p0
0	-0.1599005532164116	0.05847559505248939	0.897989858161075	0.3774920279260975	-0.2592668948871672	-0.2707615420986005	-0.0126506700172305	0.03223623128433509	0.03223623128433527	-0.1745328804898532	0.1724195969265271	-0.04231376238535053	-0.00941695858578104	0	0	0	0	0	0	0	0	0	0	0	0	0	0.1302621210654547	-0.06448731819861474	-0.04525207902346526	-0.2630705750570557	0.2364729421643575	-0.03393475393854443	-0.08157668038062661	33.49369079103835	2.2959357202347	6.744547742742481	17.68240333491984	-593.3623183256583	-70.56433911359419	-39.00724178333396	-4.301631709242063	-2.456850912659453	-1.042058490060409	11.69360166866165	-0.956188371468045	2.249277318135474	-5.594362704609476	6.949133862291223	6.949133862289733	0.06411188945625441	0.1100005813347608	-0.4463605967559787	-1.084361959409264	1.874436333394499e-09	8.907848236705176e-08	1.086153228007357e-08	-1.380714449909583e-08	1.093534261728825e-07	6.761923646151108e-08	-3.480342107092545e-10
0.01	-0.1601092998414708	0.05835489300877626	0.8979388960597786	0.3780625199332002	-0.2593148492067376	-0.2706494518529011	-0.01293091893857815	0.03257567803003329	0.03257567803006516	-0.1745319532195425	0.1724229216800358	-0.04233658728392919	-0.00947141562451744	-0.04157064826890911	-0.0239616360240419	-0.01015054483747619	0.1135175270964813	-0.0095586968806105	0.02232703605928452	-0.05565081738904232	0.06760329327893086	0.06760329327892557	0.0001588519215554474	0.0006623003225965722	-0.004447436587951176	-0.01083052348136495	0.1273783995040353	-0.07253589359308431	-0.04504503716964581	-0.2627266691069245	0.2370357247978541	-0.02533606214979003	-0.07859659772192026	34.01934112917516	-1.293056016000633	7.04549660210254	15.64225397012962	-594.4874121419315	-77.71770924488217	-39.01712562927948	-4.057984808756697	-2.339006800804417	-0.99524929680786	11.09369425151355	-0.9508941395427827	2.210765391909664	-5.490596222734667	6.623018751257517	6.623018751257896	-0.01220651790132548	0.0439489206980213	-0.4263025553533503	-1.073280288725474	-1.891213594351282e-08	8.601373602995416e-08	4.6976696604896e-08	2.38271547964011e-09	-7.721168877222029e-09	5.527125272740834e-08	-7.102366121922859e-09
0.02	-0.1607283936338563	0.05799993723411728	0.8977876891468615	0.3797507604154706	-0.2594574272537509	-0.2703168215181767	-0.01375570702717999	0.03358257604662858	0.03358257604662902	-0.1745302331009611	0.1724327902693446	-0.04240036002149582	-0.009632354447313089	-0.08206943345934783	-0.04685074618917108	-0.02004896232416064	0.2235496950478573	-0.01892474548866489	0.04410801780195622	-0.108907833445364	0.1334902541803909	0.1334902541803875	0.0001585693868002741	0.001308767164235357	-0.008189567797457435	-0.02129635681177081	0.1244946779420208	-0.08058446898750403	-0.0448379953161609	-0.2623827631570784	0.2375985074312579	-0.01673737036100428	-0.07561651506363422	34.60523905556215	-4.892026004224961	7.347386067817467	13.56596989496612	-594.6435756683877	-84.79295151295045	-39.04627409261332	-4.087259093547877	-2.242345740876868	-0.9916330199021274	10.9965298396402	-0.9176587169578313	2.140066454812874	-5.115602438065034	6.605867386797053	6.605867386796997	0.03228499819214452	0.1068338851433233	-0.3052995210672348	-1.011423929218485	-3.969870822042014e-08	8.294898969285655e-08	8.309186092971843e-08	1.857257545837605e-08	-1.247957639273265e-07	4.29232689933056e-08	-1.385669803313646e-08
0.03	-0.1617469580892518	0.05742058732756339	0.8975385200872599	0.3825229776008864	-0.2596923527621844	-0.2697692162471244	-0.01510117695651912	0.03523982861179446	0.03523982861176612	-0.1745287670663073	0.1724490750450433	-0.04249908871987745	-0.009896033842032493	-0.1214183194806842	-0.068924921103783	-0.02976212423005228	0.3303755827184188	-0.02800196500228783	0.0653113248209001	-0.1598257659461757	0.1976681617279633	0.1976681617279606	0.0001435444090097875	0.001945804658109825	-0.01154762672724605	-0.03137845415752469	0.1177429091486662	-0.07519718306728629	-0.04373469321323652	-0.2552183273679523	0.2299582898743019	-0.01789339013758538	-0.07023220271929441	32.14110994182752	-4.070042944050327	7.343730050771191	14.53421549777763	-594.4445962803011	-82.11097178015577	-39.09380427387435	-3.824937219741187	-2.175802484226625	-0.9577744032297375	10.44788726196727	-0.8940045505928993	2.095194010485049	-5.02583068345599	6.279940669869069	6.279940669869608	-0.01704203753953353	0.04177005503490531	-0.3497787849486534	-0.9974646592430961	-4.84632272314837e-08	9.270823800576123e-08	9.456603171398387e-08	2.579594502582123e-08	-1.876423356432124e-07	5.290703662036608e-08	-1.584712953417886e-08
0.04	-0.1631522581775518	0.05662332584836894	0.8971928960831379	0.386347907469144	-0.2600163006621579	-0.2690126316688383	-0.0169450146163706	0.03753009789857886	0.0375300978985823	-0.1745271804396778	0.1724716564704636	-0.04263114194876031	-0.01025870661460774	-0.1594165600344759	-0.09043306071728525	-0.03933995122821094	0.4340922316371389	-0.03672922379704994	0.08590387924182998	-0.2085813795416185	0.2600935985207969	0.2600935985207985	0.0001826877601844134	0.002568097092994399	-0.01485447389760181	-0.04109503238286855	0.1109911403544103	-0.06980989714709751	-0.04263139111009982	-0.2480538915793187	0.2223180723171947	-0.01904940991423179	-0.06484789037558616	29.73199829739621	-3.256117784547006	7.339560643443369	15.46335340953157	-593.3716254871492	-79.3544451318929	-39.15882980875583	-3.817130000038746	-2.129138680654961	-0.9645660383555485	10.37468208927171	-0.8476665731860272	2.017915935210043	-4.683138656990957	6.255373235849274	6.255373235849947	0.04311866398446183	0.1038848733454026	-0.2950571691807972	-0.938320105136858	-5.697986885562264e-08	1.027318985794907e-07	1.055321407757636e-07	3.283443850231197e-08	-2.493708037851968e-07	6.335125272910003e-08	-1.773933628449608e-08
0.05	-0.1649314251121896	0.05561408700007074	0.8967519957373489	0.3911950520661836	-0.2604256487407103	-0.2680531136455303	-0.01926525046583311	0.04043617506179822	0.04043617506177666	-0.174524745189223	0.1725004204256854	-0.04279554777045019	-0.01071649079961537	-0.1962138329650611	-0.1112898834302934	-0.04882853755214157	0.5348050898937503	-0.0450795420686243	0.1059059675333568	-0.255112194812483	0.3208234949220227	0.3208234949220037	0.0003050570244520647	0.003172546547760069	-0.0179850996368693	-0.05039074607262343	0.1050392397457855	-0.0685218420146242	-0.04184125644328966	-0.2436709333709966	0.2183564386755094	-0.01740439868967958	-0.05994577916806743	28.62281851244635	-3.773514239398358	7.418823261421316	15.17626703325484	-592.4640010351117	-79.48163070539619	-39.24017474558793	-3.580581327356547	-2.045223615956392	-0.9393182457768209	9.839838656256779	-0.8195955139972526	1.977275926076427	-4.585013630542818	5.937050526696678	5.937050526693364	-0.003078123592457288	0.03688818665879349	-0.3158286892387797	-0.9145658883056516	-6.592690405172555e-08	1.135028443826664e-07	1.1522357651877e-07	4.142491078476654e-08	-3.007303201804815e-07	6.844473477384446e-08	-1.904280585275888e-08
